<svg version="1" xmlns="http://www.w3.org/2000/svg" width="346.667" height="346.667" viewBox="0 0 260.000000 260.000000"><path d="M149.4 18.9c-.3.3-1.5.6-2.7.7-3 .1-8.8 1.5-10.7 2.4-.8.4-3.7 1.8-6.5 3.1C122 28.5 108 39.6 108 42c0 1.9-2.9 1-4.1-1.2-2-3.6-7-8.7-11.8-11.7-17.1-10.8-37.5-8.3-51.4 6.2-5.4 5.6-7.8 9.9-9.8 16.7-1.4 5-2.1 15.9-1.1 17.5.3.5.7 1.6.8 2.5.5 3.4 1.3 6 3.1 9 1 1.8 2.4 4.3 3.1 5.6 1.7 3.1 9.9 10.3 14.2 12.3 3.5 1.6 3.5 1.7 3.2 7.3-.2 3.3.3 8.1 1.2 11.2 1.5 5.1 1.3 8.6-.4 8.6-1.4 0-9 12.7-11.1 18.5-5 14.1-4.4 29.6 1.6 43.1 2.8 6.3 10 16 14.7 19.9 1.8 1.4 4 3.2 4.9 4 2.3 1.8 13.9 7.3 16.9 7.9 1.4.3 4.1.9 6 1.4 3.9.9 17.1.8 21-.2 1.4-.4 3.6-.9 5-1.2 4.7-1 16.5-7.4 21-11.3 5-4.5 5.8-4.8 6.6-2.6.4.8 1.1 1.5 1.6 1.5s2.1.9 3.5 2 3.4 2 4.4 2c1.1 0 1.9.4 1.9 1 0 .5 1.2 1 2.6 1 1.5 0 3.4 1 4.7 2.6 6.7 8.2 12.3 13.4 16.8 15.9 17.6 9.5 38.2 6.3 51.8-8 5.1-5.4 9.5-13 10.8-18.7 1.3-5.9.8-20-.9-24.3-.9-2.2-2.2-5.5-2.9-7.3-1.3-3-1.2-3.4 1.4-5.8 4.6-4.2 8.8-13.8 9.4-21.4 1.3-16.6-8-31-24-36.9-3.1-1.1-5.9-2.1-6.2-2.1h-1.1c-.4 0-.2-.6.3-1.3.9-1 1.5-2.9 3-8.7 2.5-9.9 1.9-26.2-1.2-33.7-.8-1.8-1.2-3.3-1-3.3.8 0-7.1-14.5-9.2-16.7-.6-.7-2-2.3-3-3.6-5.6-7.1-22.7-17.5-31.4-19.2-1.9-.3-4.5-.8-5.9-1.1-3.6-.7-17-1.1-17.6-.5z"/></svg>